<?xml version="1.0" encoding="UTF-8"?>
<svg id="Layer_2" data-name="Layer 2" xmlns="http://www.w3.org/2000/svg" viewBox="0 0 864.14 855.99">
  <defs>
    <style>
      .cls-1, .cls-2, .cls-3, .cls-4, .cls-5 {
        fill: #fff;
      }

      .cls-6, .cls-7, .cls-8, .cls-9, .cls-10, .cls-3, .cls-11 {
        stroke-miterlimit: 10;
      }

      .cls-6, .cls-7, .cls-9, .cls-12, .cls-11 {
        fill: none;
      }

      .cls-6, .cls-13, .cls-2, .cls-9, .cls-4, .cls-11, .cls-5 {
        isolation: isolate;
      }

      .cls-6, .cls-2, .cls-9, .cls-4, .cls-11, .cls-5 {
        font-family: FranklinGothic-Medium, 'Franklin Gothic Medium';
        font-size: 65.18px;
        font-weight: 500;
      }

      .cls-6, .cls-9, .cls-3, .cls-11 {
        stroke: #000;
      }

      .cls-6, .cls-9, .cls-11 {
        stroke-width: 1.14px;
      }

      .cls-7, .cls-8, .cls-10 {
        stroke: #fff;
      }

      .cls-8 {
        fill: #666;
      }

      .cls-9, .cls-5 {
        letter-spacing: -.05em;
      }

      .cls-4, .cls-11 {
        letter-spacing: .02em;
      }

      .cls-14 {
        fill: #1b14b2;
      }
    </style>
  </defs>
  <g id="Layer_2-2" data-name="Layer 2">
    <g id="Layer_1-2" data-name="Layer 1-2">
      <g>
        <g>
          <path id="semn" class="cls-14" d="m395.17,843.79L11.37,451.69c-15.5-15.8-15.1-41.1.9-56.5L411.87,11.29c16-15.4,41.5-15,57,.9l383.9,392.1c15.5,15.8,15.1,41.1-.9,56.5l-399.7,383.9c-15.9,15.4-41.4,15-57-.9h0Z"/>
          <g>
            <g>
              <path class="cls-8" d="m131.27,361.59c31.6-2.8,63.3-5.1,94.9-8,3-.4,3-.5,2.9-1.9.3-3.9-1.6-9,.6-12.2.3,0,.5,0,.8.1.9,4,.1,8.4.3,12.5,0,1.2.3,1.3,2.9,1.1,20.5-1.7,40.9-3.4,61.4-5.1,11.9-1,23.7-2,35.6-2.9,5.4.9.3-12.5,3.2-14.8,3,1.3-1.9,15.2,2.4,14.2,9.1-.6,6-.3,7.2-8.4.9-2.2-1-4.4.2-6.4h.8c.5,3.9.1,8,.1,12,0,2.1-.1,2.1,4.6,1.7,18.6-1.3,37.2-3.6,55.8-4.3-.2-3.1-.4-6.3-.4-9.4h.8c2.5,3.5-2.5,10,4.8,8.8,3.2-.33,4.77-1.23,4.7-2.7.4-2.6-1.4-6.5.6-8.3,2.3,1.7.4,7.5.9,10.4,11.9-.6,23.8-2,35.7-2.8,5.3-.1,1.8-5.7,2.6-9,3.9-.2,1.7,4.6,2.2,6.9,0,1.3,0,1.4,3,1.3,8.9.6,1.8-5.9,5.7-8.6,1.7,1.5.2,4.7.5,6.9.1,2.9,19.1-.8,22.1-.7,8.3-.8,16.3-1.5,24.7-1.9,5.7.3.1-4.3,3.6-5.9,2.4,1.2-1.1,5.1,2.1,5.2,2.1-.4,5.6.6,6.7-1.4.3-1.3-.6-2.8.3-3.9h.6c2.3,3.1-2.5,6.1,5,4.4,2.8-1.2,11.8.7,12.7-2-.1-1.1-.2-2.2-.2-3.3.2,0,.4-.1.7-.1,2,1.4-.7,4.6,3.3,4.1,9.6-1.1,19.8-2,27.5-5.6-3.8-.6-15.5-4.7-18.3-.9-6.5-4.5-18.9.1-26.8-2,36.8-1.4,74.3-1.3,110.7,3.9-49.7,10.9-100.5,18.2-150.5,28.5,1.3.2,1.2.3,2.7-.2,11.2-5.6,27.7,3.4,38-1,38-8.8,76.7-15.5,114.4-25.2,15.4-9.8-81.1-6.4-86.8-8.3,0-.1.1-.3.1-.4,53.2-.3,106.2-1.6,159.3,4.3v-4.5h.8c1.5,1.8-1.4,5.1,2.3,5.4,2-.9.5-3.4.9-5.1h.7c.9,1.7.2,4.1-.2,6,9.5,3.3,2.1,9.6-3.5,13.1-21.7,14.1-44,27.4-66.7,40.3-65,35.3-126.4,76.1-189.2,114.8H131.27v-61.3c119.1-22.3,238.2-44.5,357.3-66.9,0-.1-.1-.2-.1-.3-48.4-3.7-95.9,10.7-143.7,16.4-71.1,11.2-142.2,22.3-213.4,33.3-.1-17-.1-33.5-.1-49.9h0Z"/>
              <path d="m239.07,304.39c12.3-.5,24.9-2.1,37-1.8v.5c-12.2,1.5-24.7,2-37,3v-1.7Z"/>
              <path d="m602.47,280.39c-1.6-.3-3.1-.6-4.7-.9v-.3c1.5.2,3.1.5,4.6.7.1.2.1.3.1.5h0Z"/>
              <path d="m508.07,273.69c28.3-.4,56.6-1.2,84.8.2v.5c-28.3-.5-56.6-.3-84.9-.4,0,0,0-.2.1-.3h0Z"/>
              <path d="m290.67,323.39c0-5.1-2-15.7.4-19.6,1.2,6,.9,13.3.2,19.6h-.6Z"/>
              <path d="m486.07,277.39c-5.8-.6-11.7-.3-17.5-.4,2.7-2.6,13.8-2.4,17.5,0v.4Z"/>
              <path d="m546.57,276.19c-4.1,1.5-9.1.7-13.4.3,1.6-1.3,3.3-.5,5.2-.7,2.7.3,5.5-1,8.2-.2v.6h0Z"/>
              <path d="m450.77,280.99c7.2-.5,14.4-1,21.6-1.5v.3c-7.1,1-14.4.8-21.6,1.6v-.4Z"/>
              <path d="m453.47,296.39c-1.2-7.7,1.1-8.2.5-.1-.2.1-.3.1-.5.1Z"/>
              <path d="m484.67,291.29c-.6-1.3-.4-3.9.7-4.5-.1,1.5-.2,3-.2,4.5h-.5Z"/>
              <path d="m513.37,276.49c.4-1.1,1.3-1.3,3-.8-.6,1.2-1.4,1.4-3,.8Z"/>
              <path d="m399.77,294.99c-2.7,1.8-2.5-1.8,0-.4v.4Z"/>
              <path d="m573.77,278.79c.7,1,.2,2,.1,2.9h-.4c-.1-1-.1-2-.2-2.9h.5Z"/>
              <path d="m555.77,276.19c-.6,0-1.3.1-1.9.1v-.5c.6,0,1.3-.1,1.9-.1v.5Z"/>
              <path d="m297.07,306.29c0,.6-.1,1.2-.1,1.8h-.5c.1-.6.1-1.2.2-1.9.1.1.2.1.4.1Z"/>
            </g>
            <g>
              <path class="cls-10" d="m529.37,194.09c13.6,8.6,31.4,10.6,44.6,19.5-4.6.2-9.1-5.6-13.7-4,12.7,7.4,27.9,12.4,40,21.6,8.2,6.6,9.9,18.1,13,27.6,0,3.1,8,21.6,3.3,20.6-13.4-1.7-34.7-8.8-47.1-4.3-1.5,1.7,1,3.1-1.6,4.6-.2.2-.3.5-.5.8.9.8,2.7.4,2.9,1.9,1.6,4.9-4.3,5.8-7,2.6-1.1-1.4-1.6-3.2-2.9-4.4-1.1.9-.2,7.7,1.6,7.4,8.9.2,17.8.2,26.7.6,10.5,0,21.3,3.4,31.7.8,0-.2,0-.3.1-.5-8.9-1.8-18-2.4-27-3.3v-.6c9.2.7,18.7,1.4,27.6,3.8,4.1-2.8,2.1,27.5,2.7,30.4-1.1,13.8,2.4,27.8-.7,41.3-1.2,4-3.3,7.2-7.2,9.2-.4.2-.7.9-.8,1.4-2.4,9.8,1.1,24.6-10.9,28.7-12.7,4.2-26.2,4.2-39.4,5.6-18.8,3.8-37.9,5-56.8,7.8-8.9.9-16.8,6.4-26,5.2-24.1,1.2-48.4,2.1-72.6,1.9-45.6-.7-91.5.8-136.7-6.2-11.9-1.8-19.9-8.4-23.9-19.6-3.3-5-8.3-2.6-12.3-11.3-1.4-7,1.5-14.6-.8-21.7-2.3-9.5-3.3-19.4-1.2-29.1.3,3.5.8,6.9,4.2,9.1.8-2-.1-4.5.1-6.7,1-4.4-1.8-8.2-1.5-12.6.4-2.5,2.6-4.5,3.7-6.8.5-2.4-.5-5.1.7-7.3h.3c-.4,3.9,1.8,7.4,4.2,10.2,1.5.1,1.7,1.4,2.4,2.2,2.6,4,7.2,4.9,11.4,6.1,1.2.3,1-.6.9-1.2-1.5-8.1-3.7-16.5-2-24.8-.1,0-.3-.1-.4-.1-.6,2.1-1.2,4.1-1.9,6.2-1.8-2.9-3.7-5.8-5.6-8.8,1.5.3,1.1,2.6,2.9,2.3,1.2-.3,1.7,2.1,3.1,1-2.3-2.1-4.6-4.1-6.6-5.9.7-3.5.5-5-3-2.8,2.4-4.1,3.5-1,4-4,1.1-3.5,5.2-4.3,8.3-4.8,5.2.3,4.3-11.2,9.4-8.8,13.5,4.3,27.6-5.4,41.2-6.7,20.1-5.2,41.4-5.1,60.9-12.4-2.9-2-5,2.3-10.2,1-1.3-.5-.1-1.8-2.3-1.4-22.9.8-45.9,4.6-68.8,3.9,16.4-17.6,47.9-60.8,72.6-60.1-2.7.7-5,1.4-7.5,2.2,0,.1.1.3.1.4,31.7-4.6,63.7-8.7,95.8-8.3,4.3.4,8.1-2,12.3-2.1,7.1-1.1,13.8,1.9,20.7,1.5,10,.5,19.9.2,29.8-.9,1.3,0,2.4.2,3.2,1.5.2.4,1.1.7,1.7.7,4.5.1,8.2,1.9,12.8,2.4-.7-1-1.6-1.7-2.7-2.3.6,0,.6-.1.7-.2h0Zm-214.6,113.6c1.6-3.4-3.3-2.1-5.2-2.5-65.4.3-38.6,6.1,5.2,2.5-7.1,12.1,7.4,24.8,18.1,15.6,3.8-3.7,8.6-8.2,7.6-14.1-.4-1.7-.2-1.8,1.6-1.8,17.2.8,34.5-.5,51.7-.8,2-.3,4.7-.3,5.9-2-17.6-1.5-36.6-.2-54.4-.1-1,2-4.7-1.4-5.7-2.3-7.9-8-20.6-3.7-24.8,5.5h0Zm240.6-47.2c9.9-.6,19-2.1,28.7-3.3,2.2-.8-.2-4.9-.2-6.7-9.5-38-3.4-31.9-41-44.6-3.9-.9,5.6,21.2,5.4,24.6,3,9.7,2.9,21,7.1,30h0Zm-36.6,4.9c-2.6-5.1-.9-11,2.2-15.6,5.1-4.4,13.7-1,19.9-.6,3.5,1.3-.4-9.2-.2-11.2-2.4-6.2-4.4-33.9-11-33.8-6.7-1.4-12.8.7-14.8,7.7-1.6,5.7-5.4,11.4-4.8,17.5,2.3,11.3,4.6,22.7,6.6,34.1.2,1.3,1.1,1.7,2.1,1.9h0Zm-194.7,95.4h0c10.9,0,21.9-.1,32.8,0,.8,0,1.1-.3,1.1-1.1-.1-3.5-.1-7.1-.1-10.6-.2-2.5-4.3-.8-6-1.3-20.1,0-40.1.1-60.2.1-1,0-1.4.3-1.4,1.3.7,2.5-1.7,11.4,1.3,11.6h32.5Zm251.9-142.2c4,12.2,7.2,24.2,9.7,36.7.4,1.7.4,1.8,2.1,1.7,7.3-.2,14.7-.4,21.6-2.9,2.8-1.4-1.8-8-1.9-10.6-4-14.1-20.2-18.1-31.5-24.9h0Zm5.1,176.5c-1-4-2.5-7.9-2.9-12.1,0-.3-.5-.6-.8-.6-17.5-1.1-34.8.7-51.8,5-3.2,1.4-12.4,1.1-13.5,4.2-.1,1.2-.7,2.9,1.2,2.8,22.6.3,45.2.6,67.8.7Zm-250.4,10.3c32.2-2.6,64.6-4.5,96.7-7.3v-.4c-17.8-.9-35.7-.5-53.6-1-1.9-.2-1.8,2.5-3.9,2.1-8.7-.2-17.3-.3-26-.5-11-3.6-23.5-1-35.2-2.2-.9,0-1.5.2-1.9,1.2-1.2,3.7-3.5,6.6-5.8,9.7,5.4,0,10.7-.5,16.1-.8m88.5-81c7.4-.1,15.2-2.2,22-5.2,3.5-1.5,5.9-4.7,9.6-5.8,7.5-3.2,15-6.3,22.5-9.3,1.2-.3,2.1,1.4,3.2.4,6.6-3,12.4-7.5,12.4-15.2-.6-1.9-5.1.4-6.7.6-6.7,2.5-4.3,11-11.5,13.7-8.7,4.5-18.5,6.7-26.6,12.2-4.4,3.7-10.7,4.6-16.2,5.5,0-.1-.1-.3-.1-.4,8-2,15.6-4.9,21.8-10.5-7.1,4-13.7,8.6-22.1,9,3.3-6.2,6.7-12.9,12.6-17.2,14-8.3,30.6-10.9,46.1-15.5,3.2-.8,2.9-.8,2.9-3.9,0-2.5,0-2.4-2.5-2.1-2.7.1-3.6,2.1-2.8,4.6-3.1,1-6.8,2.7-10.4,2.4-2.2.4-5.3,2.3-7.3,1.9-1.8-.9-2,1.1-3.1,1.1-.9.1-1.9.4-2.8.7-.7.3-1.4.6-2.1,0-.2-.1-.8,0-1,.2-1.1,1.5-4.8,3-6,1.2-1.2,2.1-4.3,4.1-6.5,2.3,0,.6-.1,1.1.2,1.6-1.8-.1-4,2.4-5.1.2-.2-.3-.8-.4-1.2-.6-.2,1.3.3,2.4.3,3.7-2,1.8-4.3,3.8-6.6,5.8-.2-2,.5-4.1-.6-5.9-4.1,7.9-8.2,16.4-12.4,24.5h0Zm215.7-26.3v.4c-8.8-1-17.7-1.7-26.6-2.1-.3,0-.9-.5-.9-.8-.6-2.9-17.9-.5-21.6-1.2-11.3,1.1-13.3-3-11.1,10.5.3,2.5,3.8.6,5.5.8,11.9-1,23.8-1.6,35.7-2.6,3.7-1.1,20-.4,20.3-4,.3-4-3.8-3.1-6.3-3.7-.3,0-.8.1-.9.2-.2,2.8,4.1,1.9,5.9,2.5h0Zm-88.7,10.5c.1.2.2.4.2.5,8.8-.6,17.6-1.9,26.4-2.7,2.2-.5,0-6.4.3-8.4-.4-3.5.3-3.2-3.2-2.7-8,1.3-16.2,1.7-24,3.5,0,.1,0,.2.1.3,3.4.9,6.9-.5,10.3.3,1.9-1,3.4.6,5.1.8.3,0,.6.6.7.9-4.2,4.4-10.7,5.1-15.9,7.5h0Zm-263.7,12.1c1.2,11.4,14.1,10.6,22.7,12.3,19.3,2.8,38.7,3.2,58,.8,12.8-2.1,28.2-.7,38.7-9.2,5.4-6.6,17.5-20.1,14-28.8.8,9.3-6.2,16.9-11,24.5-9.2,12.2-26.6,9.4-40.1,12.1-16.5,1.5-33,2.3-49.4.3-10.9-1.6-27.1.4-31.1-12.7-.1.1-.3.1-.4.2.7,3.6,2.5,6.9,6.4,8.5-4.5.6-5.6-5.1-7.8-8h0Zm73.5-3.7c-.5-.2-.8-.4-.9-.3-10.7,5.7,2.4,3.8,6.9,4.2,10.4-1.5,38,.7,44.7-5-17.4.5-35,.5-52.2,2.5.6-.6.9-1,1.5-1.4h0Zm-74.5-19.6c43.4-4.5,90.2-5.8,134.1-2.2-2.2-3.1-7.6-1.7-11.1-2.3-8.9-.2-17.7-.6-26.6-.6-25.7-.1-51.4,0-77,2-6.3,1.1-13.9-.3-19.4,3.1Zm245.8,21.5c2.7-.8,2.3-3.3,3.7-5.2.4-.7.4-1.1,0-1.8-1.7-2.2-2.3-4.7-2-7.4,0-2.3-3.3-2.7-4.7-4.1-2-1.2-3.6-3.4-5.9-4.1,2.4,21.2-2.3,6.5,8.9,22.6Zm103.6-41.1c-.3-1.6-1.5-1.6-2.4-1.8-10-2.4-20.1-4.1-30.2-5.5-21.9-3.7-43.7-1.9-65.8-.9v.4c32.9-1.8,65.9,1.7,98.4,7.8Zm-124.8,64.9c1.7-2.3,2.5-5.7,5.1-7,.9,7.9,2.5,17.2.3,24.7-2.6-1.7-5.2-3.7-8.2-5-.1.1-.3.2-.4.2.6,4,5.7,5.4,8.4,8.3,5.4-8.8.6-19.8,1.9-29.1,2.3,1,1.1,9.4,1.9,12.1.4,5.7.9,11.4-1.6,16.8-.2.5.1,1.2.2,1.7,4.9-.9,8.5-6.1,9.6-10.5-.2-.1-.3-.2-.5-.3-1.6,2-3.3,4.6-5.8,5.4-.3-8-.4-16.3-1.4-24.4.1,0,.2-.1.3-.1.6.6,1.2,1.3,1.8,1.9-3.4-8.2-11.3-.5-11.6,5.3h0Zm-220.7-24.9c2.9,4,8.9,1.7,13.2,2.6,9.5.2,19.5,1.8,28.9.1.3-4.8-36.8-2.8-42.1-2.7Zm227,58.9c-.1.1-.3.2-.4.2,2.1,8.7-1.1,17.7-4.6,25.6,1.1,3.2,4.8,5.7,6.7,4.2-.7-.7-1.5-1.4-2.2-2.1-7,3.4,2.8-17.9,2.8-20.8h.5c2.2,5.3,2.3,11.2,4.1,16.7.1,0,.3-.1.4-.1-1.1-8-1.1-17.6-7.3-23.7h0Zm11.5-13.1c-2.9,2.3-4.6,6.3-8.8,7.4-1.6.9-.9,2.8,0,4,4.6,5.6,4.4,13,6,19.8.2,0,.3,0,.5-.1.4-7.4-3.7-14.8-2.8-22,1.8-3.1,3.9-5.6,5.1-9.1h0Zm-8.5-110.1c1.9-1.2,3.5-1.9,5.6-2.6,1.3-.3,1.6-.3,1.4-1.7-1.9-19.8-5-4.7-7,4.3Zm26.2,7.2c8.5-.4,16.7-2.1,25.3-1.3,0-4.7-2.9-2.8-6.2-2.5-6.1,3.1-13.1.9-19.1,3.8Zm-161.9-58.8c0-.2-.1-.4-.1-.6-8.6.8-17.3.6-23.7,7.4,8-3.1,15.6-5,23.8-6.8h0Zm248,120.1c.2-.1.4-.2.7-.3-.7-3.5-3-13.7-6.9-6.3-.6,1-.3,1.2.8,1.5,2.4.7,3.7,3.4,5.4,5.1h0Zm-180.9-20.7c8.9-4.6,18.6-6.7,28.4-9.4-2.8-1.4-25.7,6.3-28.4,9.4Zm59.4,98.3c1.8-6.8,4.5-13.6,4.8-20.6-1.8,5.8-2.8,11.7-5,17.3-.6,1.3-.5,2.2.2,3.3h0Zm-3.1-35.6c-.2.2-.4.3-.7.5,1.5,3.4,5,5.9,8.1,7.9-.3-4.4-4.8-5.6-7.4-8.4Zm65.1-77.4c0,.1.1.3.1.4,1.4.4,5.6,1.3,5-1.3-.4-1.5-.2-3.5-1.9-4.3-1.8,1.8.5,4.5-3.2,5.2h0Zm56.7,87.4c-1.3-4-.9-7.8,1.2-11.5-.1-.1-.2-.1-.3-.2-5.3,7.4-6.6,1-.9,11.7Zm-4.5-4c.7,1.8,0,4,1.9,5.4,1.7,3.1,1,7.2,1.9,10.6.1,0,.3,0,.4-.1-.7-5.3.1-11.9-4.2-15.9h0Zm.5-8c2.5-.6,4.7-3.6,4.8-6.3-1.2,2.3-2.2,3.5-3.1.3-.1,0-.2.1-.2.1-.5,1.9-1,3.9-1.5,5.9Zm-275.4-78.1c1-.7,2.1-1.1,2.9-1.9,2.5-3.7-8-.4-2.9,1.9Zm-66.5,21.3c.3.1.5.2.8.3.9-2.2,1.8-4.4,2.7-6.6-.1-.1-.2-.3-.3-.4-3.1.9-2.5,4.1-3.2,6.7Zm342.6,71.1c-.9,4.2-2.9,8.6-3.2,13h.4c1.3-4.3,2.9-8.6,2.8-13Zm-103.3-106.3c0-.2-.1-.4-.1-.6-1.8,0-3.7-.7-5.1.6,1.3,1.6,3.7,1.2,5.2,0Zm98.1,84.7c-.2.2-.4.3-.6.5.6,2.2,2.8,3.1,4.2,4.7,1.1-2.4-2.4-3.5-3.6-5.2h0Zm4.4-3.3c.2,0,.4,0,.7-.1-.1-3.5-.3-7.1-.4-10.6h-.7c.1,3.7.3,7.2.4,10.7Zm-339.4-43.9c-.8,3.4,0,8,1.5,9.2-.6-3.2-1.1-6.2-1.5-9.2Zm158,.2c-1.7,1.2-.8,3.6,1.1,3.1,2.7.6,4.3-4.4,1.3-4.7,3.2,2.9-2.1,6.6-2.4,1.6Zm177.8,77.5c.2,0,.3.1.5.1,1.2-3.5,1.9-7.1,2-10.8-.8,3.6-1.7,7.2-2.5,10.7h0Zm-1-24.1c-.2.1-.3.2-.5.4.8,1.2,2,3.2,3.5,3.5,1.1-.4,1.3-1.3.7-2.3-.1,0-.3,0-.4.1-.1.5-.3,1-.5,1.5-1-1.1-1.9-2.2-2.8-3.2Zm-48.9-74.3c0-.1-.1-.3-.1-.4-1.6.1-3.6-.9-4.9.4,1.2,1.2,3.7,1.1,5,0Zm51.8,103.8c1.1,1.9,3,2.1,3.2-.3-.7-1.2-2,0-3.2.3Zm-87.6-90.5v-.5c-2.9-2.1-7.8,3,0,.5Zm90.9,40.2c.1-.1.2-.1.4-.2-2-2.1-4.2-1-4.6,2,1.3-.7,2.2-2.8,4.2-1.8h0Zm-111,26.2c-.8,1.3-.8,2.6,0,3.4,1-.8,1-1.7,0-3.4Zm-76.1-73c-2.8-.4-3.8.1-4,1.4,1.3-.5,2.7-1,4-1.4Zm-2.7,4.8c0,.1,0,.3.1.4,1.3-.1,2.7-.2,4-.2,0-.2,0-.4-.1-.6-1.2.3-2.7-.6-4,.4h0Zm200.9,41.9c0,.2.1.4.1.6.9-.2,1.8-.4,2.8-.6,0-.2-.1-.4-.1-.6-1,.2-1.9.4-2.8.6Zm-64.8-62c-.9,1.4-.7,1.5.4,2.3,1-.9.3-1.2-.4-2.3Zm-184.9-76.9c0-.2-.1-.5-.1-.7-.9.2-1.9.3-2.8.5,0,.2.1.5.1.7.9-.2,1.8-.3,2.8-.5Zm128.7,171.4c.6-1.4.2-1.9-1.4-1.8.5.6.9,1.1,1.4,1.8Zm48-84.9v-.4c-1.1.1-2.3.2-3.4.3v.4c1.1-.1,2.2-.2,3.4-.3Zm-82.2-5.1c0,.1,0,.2.1.2,1.4-.3,2.7-.6,4.1-1,0-.1-.1-.3-.1-.4-1.3.5-2.7.8-4.1,1.2h0Zm52.2-79.4l.1.1c.7-.7,1.4-1.5,2.1-2.2l-.1-.1c-.6.8-1.4,1.5-2.1,2.2Z"/>
              <path d="m246.47,298.19c2.5,4.1,9.3,7.4,7.3,12.7-1.2,4.4,3.2,1.5,3.5,7.8.2,1.1-.1,1.5-1.2,1.3-5.3-.8-5.4-7.7-9.6-10-5.9-1.9-2-7.8,0-11.8Zm.7,2.6c-1.5.9-3.1,4.2-1.1,5.2,1.4-.9,1.7-3.6,1.1-5.2Z"/>
              <path d="m319.07,259.79c10.6-1.3,21.4-2.8,32.1-2.7-.9.9-30,3.3-32.1,2.7Z"/>
              <path d="m249.47,317.99c2.1,3.4,6.2,3.7,9.2,5.6-.1.2-.2.4-.3.5-3-1.6-8.2-1.9-8.9-6.1h0Z"/>
              <path d="m442.97,191.79h9.7c-.7.7-8.2.9-9.7,0Z"/>
              <path class="cls-1" d="m555.37,260.49c-4.3-9-4.1-20.3-7.1-30-1.8-7.9-4.8-15.6-6.6-23.6-.1-.8.1-1.4,1.2-1,10.5,3.2,20.8,6.9,30.8,11.6,6.2,9.3,6.8,22.3,10.2,33,0,1.8,2.3,5.9.2,6.7-9.7,1.2-18.7,2.7-28.7,3.3h0Z"/>
              <path class="cls-1" d="m518.77,265.39c-1.1-.2-1.9-.5-2.2-1.9-2-11.4-4.3-22.7-6.5-34.1-.6-6.1,3.2-11.7,4.8-17.5,2-7,8.1-9.1,14.8-7.7,6.6-.2,8.5,27.5,11,33.8-.1,1.9,3.7,12.6.2,11.2-6.2-.4-14.9-3.8-19.9.6-3,4.5-4.8,10.5-2.2,15.6h0Z"/>
              <path class="cls-1" d="m324.07,360.79h-32.4c-3-.2-.6-9.1-1.3-11.6,0-1,.4-1.3,1.4-1.3,20.1,0,40.1,0,60.2-.1,1.8.5,5.8-1.2,6,1.3,0,3.5,0,7.1.1,10.6,0,.8-.4,1.1-1.1,1.1-11-.1-22,0-32.9,0h0Z"/>
              <path class="cls-1" d="m575.97,218.59c11.3,6.8,27.5,10.8,31.6,24.9.1,2.6,4.7,9.4,1.9,10.6-6.9,2.5-14.3,2.7-21.6,2.9-1.7.1-1.7,0-2.1-1.7-2.7-12.5-5.9-24.5-9.8-36.7h0Z"/>
              <path d="m581.07,395.09c-22.6-.1-45.2-.4-67.8-.7-1.8.1-1.3-1.6-1.2-2.8,1.1-3.1,10.2-2.8,13.4-4.2,17-4.3,34.3-6.1,51.8-5,.3,0,.8.4.8.6.4,4.2,2,8.1,3,12.1Z"/>
              <path class="cls-1" d="m405.57,325.19c4.2-8.2,8.3-16.6,12.6-24.5,1.2,1.7.4,3.9.6,5.9,2.3-2.1,4.5-4,6.6-5.8-.1-1.3-.5-2.4-.3-3.7.4.2,1.1.3,1.2.6,1.1,2.2,3.2-.3,5.1-.2-.4-.5-.3-1-.2-1.6,2.2,1.9,5.3-.2,6.5-2.3,1.1,1.7,5,.2,6-1.2.1-.2.8-.3,1-.2.7.6,1.4.3,2.1,0,.9-.3,1.9-.6,2.8-.7,1.1,0,1.3-2,3.1-1.1,2,.3,5.1-1.5,7.3-1.9,3.6.4,7.3-1.4,10.4-2.4-.7-2.5.1-4.5,2.8-4.6,2.6-.3,2.5-.4,2.5,2.1,0,3.1.3,3.1-2.9,3.9-15.5,4.6-32.1,7.2-46.1,15.5-5.8,4.3-9.3,11-12.6,17.2,8.5-.4,15.1-5,22.1-9-6.2,5.6-13.8,8.5-21.8,10.5,0,.1.1.3.1.4,5.5-.9,11.8-1.7,16.2-5.5,8.1-5.5,17.9-7.7,26.6-12.2,7.3-2.7,4.8-11.1,11.5-13.7,1.7-.3,5.9-2.5,6.7-.6-.1,7.8-5.8,12.3-12.5,15.2-1.1.9-2-.8-3.2-.4-7.5,3.1-15.1,6.2-22.5,9.3-3.7,1.2-6.1,4.3-9.6,5.8-6.9,3-14.7,5.2-22.1,5.2h0Zm57.8-22.2l.3.3c.7-.6,1.3-1.1,2-1.7-.1-.1-.1-.2-.2-.2-.8.6-1.4,1.1-2.1,1.6h0Z"/>
              <path class="cls-1" d="m621.27,298.89c-1.7-.6-6.1.3-6-2.3.1-.2.6-.3.9-.2,2.5.6,6.6-.3,6.3,3.7-.2,3.5-16.7,2.9-20.3,4-11.9,1-23.8,1.6-35.7,2.6-1.7-.3-5.1,1.7-5.5-.8-2.1-13.5-.3-9.4,11.1-10.5,3.7.6,21.1-1.7,21.6,1.2,0,.3.6.8.9.8,8.9.5,17.7,1.1,26.6,2.1.1-.3.1-.5.1-.6h0Z"/>
              <path class="cls-1" d="m314.77,307.69c4.3-9.2,16.9-13.5,24.9-5.5,1,.9,4.7,4.3,5.7,2.3,17.9-.2,36.8-1.4,54.4.1-1.3,1.7-4,1.7-5.9,2-17.2.3-34.5,1.6-51.7.8-1.8-.1-2,.1-1.6,1.8,1,5.9-3.8,10.4-7.6,14.1-10.8,9.1-25.4-3.6-18.2-15.6,0-.1,0,0,0,0h0Zm20.6,10.6c3.8-6.5,1.7-16.8-7-17.3-.7,0-1.1.2-1.1,1-.6,3.4,1.2,8.1-1.8,10.3,3.2,1.9,6.3,3.8,9.9,6Zm-10.6,6.5c2.3-.1,10.6-3.3,9-6.3-3.1-1.1-6.2-3.8-9.4-3.6-1.6,1.4-10.2,3.3-8.2,5.7,2,2.9,5,3.8,8.6,4.2h0Zm2.2-23.8c-9,.4-13.2,9.4-12.2,17.5,7.8-4.1,10.5-9,12.2-17.5Zm20.4,4.2v.4c4.7.1,9.3.3,14,.4v-.5c-4.6-.1-9.3-.2-14-.3Z"/>
              <path class="cls-1" d="m532.57,309.39c5.2-2.4,11.7-3.1,15.8-7.4,0-.3-.4-.9-.7-.9-1.7-.2-3.2-1.8-5.1-.8-3.4-.9-6.9.6-10.3-.3,0-.1,0-.2-.1-.3,7.8-1.8,16.1-2.2,24-3.5,3.4-.4,2.8-.7,3.2,2.7-.3,2,1.9,7.9-.3,8.4-8.8.8-17.6,2.1-26.4,2.7.1-.2,0-.4-.1-.6h0Z"/>
              <path class="cls-1" d="m268.87,321.49c2.2,2.9,3.3,8.6,7.9,8.1-3.9-1.6-5.8-4.9-6.4-8.5.1-.1.3-.1.4-.2,3.9,13,20.2,11.1,31.1,12.7,16.5,2,32.9,1.2,49.4-.3,13.5-2.7,30.9.1,40.1-12.1,4.8-7.6,11.8-15.2,11-24.5,3.1,7.7-4.8,15.6-8.4,22.1-9,15.4-28.9,13.6-44.3,15.9-19.4,2.4-38.8,2.1-58-.8-8.7-1.8-21.6-1-22.8-12.4h0Z"/>
              <path class="cls-1" d="m342.37,317.79c-.5.5-.9.8-1.6,1.4,17.3-2,34.9-2,52.2-2.5-6.6,5.7-34.3,3.6-44.7,5-1.7-.3-12.3.9-11-1.4,1.6-1,3.2-3.3,5.1-2.5Zm23.5,1v-.3h-3.3v.3h3.3Z"/>
              <path class="cls-1" d="m267.87,298.19c5.4-3.5,13.1-2,19.4-3.2,25.6-2,51.3-2,77-1.9,8.9,0,17.7.4,26.6.6,3.5.6,8.9-.8,11.1,2.3-43.9-3.6-90.7-2.3-134.1,2.2Z"/>
              <path class="cls-1" d="m513.67,319.69c-11.2-16.1-6.5-1.4-9-22.6,2.3.7,3.8,2.9,5.9,4.1,1.4,1.5,4.7,1.8,4.7,4.1-.3,2.7.4,5.2,2,7.4.5.6.5,1.1,0,1.8-1.4,2-.9,4.5-3.6,5.2Z"/>
              <path class="cls-1" d="m617.27,278.59c-32.4-6.1-65.4-9.7-98.4-7.8v-.4c22-.9,43.8-2.8,65.8.9,10.2,1.4,20.3,3.1,30.2,5.5.9.3,2.1.2,2.4,1.8Z"/>
              <path class="cls-1" d="m492.47,343.49c.3-5.9,8.2-13.5,11.6-5.2-.6-.6-1.2-1.3-1.8-1.9-.1,0-.2.1-.3.1,1,8.1,1.1,16.4,1.4,24.4,2.5-.8,4.2-3.4,5.8-5.4.2.1.3.2.5.3-1.1,4.4-4.7,9.7-9.6,10.5-.1-.6-.4-1.3-.2-1.7,2.5-5.4,2.1-11.1,1.6-16.8-.7-2.7.4-11.2-1.9-12.1-1.3,9.3,3.5,20.3-1.9,29.1-2.7-2.9-7.8-4.3-8.4-8.3.1-.1.3-.2.4-.2,2.9,1.3,5.6,3.3,8.2,5,2.3-7.6.7-16.9-.3-24.7-2.6,1.2-3.4,4.6-5.1,6.9h0Z"/>
              <path class="cls-1" d="m314.77,307.59c-44.2,3.6-70.3-2.1-5.2-2.5,1.9.4,6.7-.8,5.2,2.5,0,.1,0,0,0,0Zm-36.9-1.3v.3h19.8v-.3h-19.8Z"/>
              <path class="cls-1" d="m271.77,318.59c5.2-.2,42.4-2.1,42,2.7-9.3,1.7-19.3.1-28.9-.1-4.3-.9-10.2,1.5-13.1-2.6Zm28.2,1.4v-.6c-4.2-.2-8.3-.3-12.5-.5v.4c4.1.3,8.3.5,12.5.7Z"/>
              <path class="cls-1" d="m498.77,377.49c6.2,6,6.2,15.6,7.2,23.7-.1,0-.3.1-.4.1-1.8-5.4-2-11.3-4.1-16.7h-.5c0,2.9-9.8,24.2-2.8,20.8.7.7,1.5,1.4,2.2,2.1-1.9,1.6-5.6-1-6.7-4.2,3.6-7.9,6.8-16.9,4.6-25.6.2,0,.3-.1.5-.2h0Z"/>
              <path class="cls-1" d="m510.27,364.39c-1.2,3.5-3.3,6-5.2,9.1-.9,7.2,3.2,14.6,2.8,22-.2,0-.3,0-.5.1-1.6-6.8-1.3-14.2-6-19.8-.8-1.2-1.6-3.1,0-4,4.4-1.1,6-5.1,8.9-7.4h0Z"/>
              <path class="cls-1" d="m501.77,254.29c1.9-8.9,5.1-24,7-4.3.2,1.4,0,1.4-1.4,1.7-2.1.6-3.7,1.3-5.6,2.6Z"/>
              <path class="cls-1" d="m527.97,261.49c6-2.9,13-.6,19.1-3.8,3.2-.3,6.2-2.2,6.2,2.5-8.6-.8-16.9.9-25.3,1.3Z"/>
              <path class="cls-1" d="m366.07,202.69c-8.2,1.8-15.8,3.7-23.8,6.8,6.3-6.8,15.1-6.5,23.7-7.4.1.2.1.4.1.6h0Z"/>
              <path class="cls-1" d="m614.07,322.79c-1.8-1.7-3-4.4-5.4-5.1-1.1-.3-1.4-.5-.8-1.5,3.9-7.3,6.2,2.8,6.9,6.3-.3.1-.5.2-.7.3h0Z"/>
              <path class="cls-1" d="m433.17,302.09c2.7-3.1,25.6-10.8,28.4-9.4-9.8,2.7-19.6,4.8-28.4,9.4Z"/>
              <path class="cls-1" d="m492.57,400.39c-.7-1.1-.8-2-.2-3.3,2.2-5.6,3.2-11.5,5-17.3-.3,7-3,13.8-4.8,20.6h0Z"/>
              <path class="cls-1" d="m489.47,364.79c2.7,2.8,7.2,4,7.4,8.4-3.1-2-6.6-4.5-8.1-7.9.2-.2.4-.3.7-.5Z"/>
              <path class="cls-1" d="m554.57,287.39c3.7-.7,1.5-3.3,3.2-5.2,1.6.8,1.4,2.8,1.9,4.3.7,2.6-3.6,1.7-5,1.3-.1-.2-.1-.3-.1-.4h0Z"/>
              <path class="cls-1" d="m611.27,374.79c-5.6-10.6-4.4-4.3,1-11.7.1.1.2.1.3.2-2.2,3.7-2.6,7.5-1.3,11.5Z"/>
              <path class="cls-1" d="m606.77,370.79c4.3,4,3.5,10.6,4.2,16-.1,0-.3,0-.4.1-.9-3.4-.2-7.5-1.9-10.6-1.9-1.4-1.3-3.7-1.9-5.5h0Z"/>
              <path class="cls-1" d="m607.27,362.79c.5-2.1,1-4,1.5-5.9.1,0,.2-.1.2-.1.9,3.3,1.9,2.1,3.1-.3-.1,2.8-2.3,5.8-4.8,6.3Z"/>
              <path class="cls-1" d="m331.87,284.69c-5.1-2.3,5.3-5.6,2.9-1.9-.8.8-1.8,1.2-2.9,1.9Z"/>
              <path class="cls-1" d="m265.37,305.99c.6-2.6,0-5.8,3.2-6.8.1.1.2.3.3.4-.9,2.2-1.8,4.4-2.7,6.6-.2,0-.5-.1-.8-.2Z"/>
              <path class="cls-1" d="m607.97,377.09c.1,4.4-1.6,8.7-2.8,13h-.4c.4-4.4,2.3-8.8,3.2-13Z"/>
              <path class="cls-1" d="m504.67,270.79c-1.5,1.3-3.9,1.7-5.3,0,1.5-1.3,3.4-.6,5.1-.6.1.2.2.4.2.6h0Z"/>
              <path class="cls-1" d="m602.77,355.49c1.2,1.7,4.7,2.8,3.6,5.2-1.4-1.6-3.6-2.5-4.2-4.7.2-.2.4-.4.6-.5h0Z"/>
              <path class="cls-1" d="m607.17,352.19c-.1-3.5-.3-7.1-.4-10.6h.7c.1,3.5.3,7.1.4,10.6h-.7Z"/>
              <path class="cls-1" d="m267.77,308.29c.5,3,1,6.1,1.5,9.2-1.5-1.2-2.3-5.8-1.5-9.2Z"/>
              <path class="cls-1" d="m425.77,308.49c.3,5,5.6,1.3,2.4-1.5,3,.2,1.4,5.3-1.3,4.7-1.9.4-2.8-2-1.1-3.2Z"/>
              <path class="cls-1" d="m603.57,385.99c.8-3.6,1.7-7.1,2.5-10.7-.1,3.7-.8,7.3-2,10.8-.2,0-.3,0-.5-.1h0Z"/>
              <path class="cls-1" d="m602.57,361.89c.9,1,1.8,2,2.8,3.1.2-.5.3-1,.5-1.5.1,0,.3,0,.4-.1.6,1,.5,1.9-.7,2.3-1.5-.3-2.7-2.3-3.5-3.5.2,0,.3-.1.5-.3Z"/>
              <path class="cls-1" d="m553.67,287.59c-1.2,1-3.8,1.1-5,.1,1.2-1.3,3.3-.3,4.9-.4,0,.1,0,.2.1.3Z"/>
              <path class="cls-1" d="m605.47,391.39c1.2-.3,2.5-1.5,3.2-.3-.2,2.4-2.1,2.2-3.2.3Z"/>
              <path class="cls-1" d="m517.87,300.89c-7.8,2.5-2.8-2.6,0-.5v.5Z"/>
              <path class="cls-1" d="m608.77,341.09c-2-1-2.8,1.1-4.2,1.8.4-3,2.6-4.1,4.6-2-.2,0-.3.1-.4.2h0Z"/>
              <path class="cls-1" d="m497.77,367.29c1,1.7,1,2.6,0,3.4-.7-.9-.8-2.2,0-3.4Z"/>
              <path class="cls-1" d="m421.67,294.29c-1.4.5-2.7.9-4,1.4.2-1.3,1.3-1.8,4-1.4Z"/>
              <path class="cls-1" d="m418.97,299.09c1.3-1,2.7-.1,4.1-.4,0,.2,0,.4.1.6-1.3.1-2.7.2-4,.2-.1-.2-.1-.3-.2-.4h0Z"/>
              <path class="cls-1" d="m619.87,340.99c.9-.2,1.8-.4,2.8-.6,0,.2.1.4.1.6-.9.2-1.8.4-2.8.6-.1-.2-.1-.4-.1-.6Z"/>
              <path class="cls-1" d="m555.07,278.99c.7,1.1,1.5,1.5.4,2.3-1.1-.8-1.3-.9-.4-2.3Z"/>
              <path class="cls-1" d="m370.17,202.09c-.9.2-1.9.3-2.8.5,0-.2-.1-.5-.1-.7.9-.2,1.9-.3,2.8-.5,0,.2,0,.5.1.7Z"/>
              <path class="cls-1" d="m498.87,373.49c-.5-.6-.9-1.2-1.4-1.8,1.6-.1,1.9.4,1.4,1.8Z"/>
              <path class="cls-1" d="m546.87,288.59c-1.1.1-2.3.2-3.4.2v-.4c1.1-.1,2.3-.2,3.4-.3v.5h0Z"/>
              <path class="cls-1" d="m464.67,283.49c1.4-.4,2.7-.7,4.1-1.1,0,.1.1.3.1.4-1.4.3-2.7.6-4.1,1,0-.1,0-.2-.1-.3Z"/>
              <path class="cls-1" d="m516.87,204.09c.7-.7,1.4-1.4,2.2-2.1l.1.1c-.7.7-1.4,1.5-2.1,2.2l-.2-.2Z"/>
              <path class="cls-1" d="m247.17,300.79c.6,1.6.3,4.3-1.1,5.2-2-.9-.5-4.3,1.1-5.2Z"/>
              <path d="m463.37,302.99c.7-.5,1.3-1.1,2-1.6.1.1.1.2.2.2-.7.6-1.3,1.1-2,1.7,0,0-.1-.2-.2-.3h0Z"/>
              <path d="m335.37,318.29c-3.5-2.2-6.7-4.1-9.8-6,3.1-2.2,1.3-6.8,1.8-10.3,0-.8.4-1,1.1-1,8.6.5,10.7,10.8,6.9,17.3Z"/>
              <path d="m324.77,324.79c-2.7.2-11.4-3.5-8.2-6.1,2.6-1.2,5.2-2.5,7.8-3.8,3.3-.2,6.4,2.5,9.4,3.6,1.7,3.1-6.7,6.2-9,6.3h0Z"/>
              <path d="m326.97,300.99c-1.6,8.5-4.4,13.4-12.2,17.5-1.1-8.1,3.2-17.1,12.2-17.5Z"/>
              <path d="m347.37,305.19c4.7.1,9.3.3,14,.4v.5c-4.7-.1-9.3-.3-14-.4v-.5Z"/>
              <path d="m365.87,318.79h-3.3v-.3h3.3v.3Z"/>
              <path d="m277.87,306.29h19.8v.3h-19.8v-.3Z"/>
              <path d="m299.97,319.99c-4.2-.2-8.3-.4-12.5-.6v-.4c4.2.2,8.3.3,12.5.5v.5Z"/>
            </g>
            <path class="cls-1" d="m451.5,175.09c16.69,1.23,33.04-7.14,42.67-20.64-1.79-1-5.38-.67-6.38-2.23,2.58-.22,5.26-.45,7.84-.67,3.14-5.8,6.38-11.49,9.97-16.96-7.28-1.79-14.78-3.01-22.06-4.69.11-.45.34-.78.67-1.12,8.51.11,17.14.33,25.65.45,15.23-23.88,24.75-16.74,5.71,4.24,2.58,8.03,5.15,16.07,7.62,24.22-.22.33-.56.56-.78.89-3.81-6.36-7.06-13.17-10.75-19.64-4.48,4.69-8.96,9.6-13.78,14.06.34,2.23,1.01,4.46,1.34,6.81-1.68-.22-2.24-3.12-3.58-4.35-10.3,13.95-27.33,22.54-44.8,20.87-3.92,5.47-10.19,5.8-16.13,5.58-3.81,2.01-8.4,1.79-12.43.78-3.36,1.23-7.06.78-10.53.67,3.36-.22,6.83.45,10.08-.78-3.58-1.45-3.81-7.14.78-6.81,3.14.56,2.91,5.02.45,6.47,3.81,1.12,8.18,1,11.65-1-4.7-1.23-7.17-8.15-1.57-10.04,5.82-1.56,7.39,6.36,3.47,9.49,3.92,1.56,10.98-1.23,12.88-4.69-6.16-.45-11.09-9.6-4.26-12.72,6.72-2.34,10.08,6.92,6.27,11.83v-.02Zm-1.21.3c5.41-4.84-.51-16.09-6.94-9.95-2.94,4.65,2.13,9.6,6.94,9.95Zm-12.04.24c.12-5.13-7.88-5.25-8-.11.72,5.36,8.12,6.7,8,.11Zm-18.81,3.17c.98,5.12,6.44,3.52,4.8-1.25-.98-2.5-4.8-1.71-4.8,1.25Z"/>
          </g>
        </g>
        <rect class="cls-12" x="209.07" y="530.99" width="431" height="138"/>
        <g>
          <g class="cls-13">
            <text class="cls-2" transform="translate(345.64 580.94) scale(1.09 1)"><tspan x="0" y="0">Flodor</tspan></text>
          </g>
          <g class="cls-13">
            <text class="cls-6" transform="translate(345.64 580.94) scale(1.09 1)"><tspan x="0" y="0">Flodor</tspan></text>
          </g>
          <g class="cls-13">
            <text class="cls-5" transform="translate(277.61 659.15) scale(1.09 1)"><tspan x="0" y="0">T</tspan></text>
            <text class="cls-2" transform="translate(308.35 659.15) scale(1.09 1)"><tspan x="0" y="0">ranspo</tspan></text>
            <text class="cls-4" transform="translate(516.85 659.15) scale(1.09 1)"><tspan x="0" y="0">r</tspan></text>
            <text class="cls-2" transform="translate(541.82 659.15) scale(1.09 1)"><tspan x="0" y="0">ts</tspan></text>
          </g>
          <g class="cls-13">
            <text class="cls-9" transform="translate(277.61 659.15) scale(1.09 1)"><tspan x="0" y="0">T</tspan></text>
            <text class="cls-6" transform="translate(308.35 659.15) scale(1.09 1)"><tspan x="0" y="0">ranspo</tspan></text>
            <text class="cls-11" transform="translate(516.85 659.15) scale(1.09 1)"><tspan x="0" y="0">r</tspan></text>
            <text class="cls-6" transform="translate(541.82 659.15) scale(1.09 1)"><tspan x="0" y="0">ts</tspan></text>
          </g>
        </g>
        <path class="cls-3" d="m452.07,50.99c-.1,14.4-21.9,14.4-22,0,.1-14.4,21.9-14.4,22,0Z"/>
        <path class="cls-3" d="m827.07,430.99c-.1,14.4-21.9,14.4-22,0,.1-14.4,21.9-14.4,22,0Z"/>
        <path class="cls-3" d="m438.07,806.99c-.1,14.4-21.9,14.4-22,0,.1-14.4,21.9-14.4,22,0Z"/>
        <path class="cls-3" d="m58.07,419.99c-.1,14.4-21.9,14.4-22,0,.1-14.4,21.9-14.4,22,0Z"/>
        <line class="cls-7" x1="290.17" y1="259.39" x2="266.47" y2="275.39"/>
      </g>
    </g>
  </g>
</svg>